<svg width="88" height="88" viewBox="0 0 88 88" fill="none" xmlns="http://www.w3.org/2000/svg">
<path d="M79.2 0H8.8C3.9399 0 0 3.9399 0 8.8V79.2C0 84.0601 3.9399 88 8.8 88H79.2C84.0601 88 88 84.0601 88 79.2V8.8C88 3.9399 84.0601 0 79.2 0Z" fill="#42A5F5"/>
<path d="M24.1691 17.6L22.3276 27.3974H60.8282L59.5815 33.7334H21.1095L19.2397 43.5014H57.7401L55.587 54.6774L40.0623 59.9866L26.6055 54.6774L27.5404 49.8666H18.0781L15.8401 61.6L38.0791 70.4L63.7177 61.6L67.1173 43.912L67.7972 40.3626L72.1601 17.6H24.1691Z" fill="white"/>
</svg>
