<svg width="88" height="88" viewBox="0 0 88 88" fill="none" xmlns="http://www.w3.org/2000/svg">
<path d="M79.2 0H8.8C3.9399 0 0 3.9399 0 8.8V79.2C0 84.0601 3.9399 88 8.8 88H79.2C84.0601 88 88 84.0601 88 79.2V8.8C88 3.9399 84.0601 0 79.2 0Z" fill="#E44D26"/>
<path d="M44.0001 61.1248L56.5357 57.6444L58.2297 38.8564H35.9305L35.3761 32.604H58.7841L59.4001 26.4748H28.6001L30.3249 44.9856H51.5461L50.8377 52.932L44.0001 54.78L37.1625 52.932L36.7313 47.8192H30.5713L31.4645 57.6444L44.0001 61.1248ZM19.5757 16.28H68.4245L64.0201 66.176L44.0001 71.72L23.9801 66.176L19.5757 16.28Z" fill="white"/>
</svg>
