<svg width="88" height="88" viewBox="0 0 88 88" fill="none" xmlns="http://www.w3.org/2000/svg">
<path d="M79.2 0H8.8C3.9399 0 0 3.9399 0 8.8V79.2C0 84.0601 3.9399 88 8.8 88H79.2C84.0601 88 88 84.0601 88 79.2V8.8C88 3.9399 84.0601 0 79.2 0Z" fill="#FDE635"/>
<path d="M12.9658 11.6442H75.3807V73.5962H12.9658V11.6442Z" fill="#FDE635"/>
<path d="M24.5767 64.7152L30.1787 61.3254C31.2594 63.2421 32.2432 64.863 34.6016 64.863C36.8615 64.863 38.2871 63.983 38.2871 60.5387V37.1483H45.1669V60.6355C45.1669 67.76 40.9904 71.0037 34.8973 71.0037C32.7432 71.1202 30.6043 70.5816 28.7623 69.4588C26.9205 68.3361 25.4618 66.6815 24.5784 64.7134L24.5767 64.7152ZM48.9051 63.976L54.5072 60.7323C55.1301 61.996 56.0968 63.0582 57.2965 63.797C58.4961 64.5359 59.8798 64.9211 61.2885 64.9088C64.1397 64.9088 65.956 63.4832 65.956 61.5173C65.956 59.1589 64.0887 58.3229 60.9435 56.9413L59.2293 56.2126C54.2661 54.1006 50.9731 51.4466 50.9731 45.8445C50.9731 40.6842 54.905 36.7541 61.0474 36.7541C63.0376 36.6098 65.0264 37.0549 66.7653 38.0336C68.5043 39.0123 69.9165 40.4814 70.8259 42.2576L65.4685 45.6984C65.1169 44.8166 64.5056 44.0627 63.7157 43.5362C62.9258 43.0097 61.9948 42.7356 61.0456 42.7504C60.6318 42.7085 60.2138 42.7534 59.8184 42.8821C59.4229 43.0109 59.0588 43.2207 58.7488 43.4981C58.4391 43.7754 58.1904 44.1144 58.0188 44.4932C57.8473 44.8721 57.7567 45.2825 57.7527 45.6984C57.7527 47.7629 59.0304 48.5971 61.9767 49.8749L63.6962 50.6123C69.5447 53.1186 72.8359 55.6741 72.8359 61.4222C72.8359 67.6139 67.9712 71.0054 61.4363 71.0054C55.0475 71.0054 50.9203 67.9589 48.9051 63.9778" fill="black"/>
</svg>
