<svg version="1.2" xmlns="http://www.w3.org/2000/svg" viewBox="0 0 85 72" width="85" height="72"><style>.a{fill:#111b34}</style><path class="a" d="m39.1 62c0 5.4-4.4 9.8-9.8 9.8h-19.5c-5.3 0-9.7-4.4-9.7-9.8v-35.7c0-14.3 11.7-26 26-26h3.2c1.8 0 3.3 1.5 3.3 3.3v6.5c0 1.7-1.5 3.2-3.3 3.2h-3.2c-7.2 0-13 5.8-13 13v1.6c0 2.7 2.2 4.9 4.9 4.9h11.3c5.4 0 9.8 4.4 9.8 9.7zm45.5-19.5c0-5.3-4.4-9.7-9.8-9.7h-11.3c-2.7 0-4.9-2.2-4.9-4.9v-1.6c0-7.2 5.8-13 13-13h3.2c1.8 0 3.3-1.5 3.3-3.2v-6.5c0-1.8-1.5-3.3-3.3-3.3h-3.2c-14.3 0-26 11.7-26 26v35.7c0 5.4 4.4 9.8 9.7 9.8h19.5c5.4 0 9.8-4.4 9.8-9.8z"/></svg>