<svg width="88" height="88" viewBox="0 0 88 88" fill="none" xmlns="http://www.w3.org/2000/svg">
<g clip-path="url(#clip0_15_450)">
<path d="M79.2 -1H8.8C3.9399 -1 0 2.86264 0 7.62745V78.3725C0 83.1373 3.9399 87 8.8 87H79.2C84.0601 87 88 83.1373 88 78.3725V7.62745C88 2.86264 84.0601 -1 79.2 -1Z" fill="#3BC0DD"/>
<path d="M45.7141 64.3789C45.1861 63.8836 44.6353 63.3866 44.109 62.8362C43.6884 63.2486 43.2941 63.6351 42.877 64.0198C37.6692 68.7822 32.3012 70.7649 29.1191 68.8375C26.0409 66.993 25.0711 61.5439 26.3031 54.6885C26.4346 53.9454 26.5923 53.2022 26.7765 52.4591C26.2239 52.2866 25.6977 52.1279 25.1714 51.9415C18.6189 49.569 14.3052 45.7158 14.3052 41.8613C14.3052 38.1463 18.3303 34.5398 24.617 32.2277C25.321 31.9792 26.0637 31.7326 26.8276 31.5118C26.6516 30.7956 26.5125 30.1071 26.3805 29.4411C25.0641 22.4823 25.9845 16.9226 29.0892 15.0505C32.3241 13.0679 37.6921 15.1886 43.0829 20.17C43.398 20.472 43.7148 20.8032 44.0562 21.1329C44.5561 20.6376 45.0295 20.1425 45.5293 19.7025C50.6333 15.0436 55.7092 13.0955 58.8138 14.9677C62.0487 16.8934 62.9973 22.8394 61.5506 30.19C61.4714 30.6592 61.3746 31.0992 61.262 31.5704C61.9202 31.7636 62.5767 31.9827 63.1821 32.2036C69.6009 34.5157 73.758 38.122 73.7052 41.9199C73.7052 45.8005 69.2594 49.6276 62.4412 51.995C62.0733 52.1053 61.7055 52.2435 61.3359 52.3521C61.4943 52.9026 61.5981 53.453 61.7037 54.0035C63.0713 61.1333 62.0188 66.9687 58.8367 68.8961C58.001 69.3894 57.0399 69.6406 56.0647 69.6209C53.1484 69.6158 49.4453 67.7333 45.7141 64.3789ZM50.8709 54.2761C49.3598 56.5807 47.6991 58.7875 45.8989 60.883C46.3988 61.4006 46.8986 61.8751 47.3985 62.3151C51.7386 66.2234 55.7373 67.6831 57.6065 66.5546C58.1772 66.0727 58.6436 65.4835 58.978 64.8215C59.3124 64.1598 59.508 63.4389 59.553 62.7016C59.9328 59.9699 59.8256 57.1944 59.2362 54.4986C59.157 54.0035 59.0602 53.5082 58.9212 52.9853C56.2706 53.5936 53.581 54.0248 50.8709 54.2761ZM28.8252 55.1579C27.7481 61.0245 28.5365 65.3969 30.4092 66.5271C31.0727 66.7989 31.7888 66.9244 32.5073 66.8944C33.2257 66.8647 33.9286 66.6804 34.5663 66.3545C37.0468 65.3324 39.306 63.8562 41.2226 62.0045C41.6169 61.6732 41.9847 61.2885 42.3807 60.9038C40.541 58.8076 38.8362 56.6009 37.2767 54.2967C34.5769 54.0757 31.8958 53.6721 29.2529 53.089C29.0892 53.8085 28.9572 54.4952 28.8252 55.1579ZM44.1372 59.0109C45.2953 57.6615 46.4516 56.1759 47.6097 54.5245C46.4516 54.5797 45.2425 54.6074 44.0316 54.6074C42.8207 54.6074 41.6908 54.5797 40.5591 54.5245C41.7418 56.1465 42.9263 57.6615 44.1354 59.0109H44.1372ZM38.6108 32.145C37.6111 33.6583 36.6378 35.2509 35.7173 36.9348C34.7969 38.5863 33.9573 40.2651 33.1917 41.9389C33.982 43.5901 34.8233 45.269 35.7437 46.9772C36.6642 48.6285 37.6375 50.2558 38.6372 51.7931C40.3725 51.9035 42.1889 51.9656 44.0298 51.9656C45.8708 51.9656 47.7117 51.9105 49.4753 51.7741C50.4221 50.2609 51.3954 48.6355 52.3177 46.9566C53.2399 45.2776 54.1058 43.5711 54.8697 41.9199C54.1058 40.2961 53.2381 38.6172 52.3177 36.9366C51.3972 35.256 50.4239 33.6583 49.4506 32.1466C47.6906 32.0086 45.8725 31.9259 44.0316 31.9259C42.1906 31.9259 40.3743 32.0068 38.6108 32.145ZM29.9305 50.5594C31.7353 50.9636 33.5622 51.2672 35.4023 51.4688C34.7705 50.4231 34.1404 49.3758 33.5349 48.2749C32.9559 47.2016 32.3769 46.1284 31.8506 45.0551C31.0885 46.9255 30.4567 48.7735 29.9305 50.5594ZM54.5265 48.2472C53.921 49.3481 53.3156 50.3937 52.7119 51.4135C54.5794 51.1842 56.4327 50.8535 58.2629 50.4231C57.6915 48.5649 57.0241 46.7365 56.2636 44.9446C55.7109 46.0455 55.1319 47.1464 54.5265 48.2472ZM25.4319 34.7591C20.0657 36.7416 16.8308 39.6284 16.8308 41.8887C16.9331 42.616 17.1809 43.3163 17.5599 43.9493C17.9389 44.5824 18.4419 45.1357 19.0396 45.5779C21.0928 47.2706 23.4473 48.5769 25.9845 49.4308C26.458 49.6035 26.9578 49.7346 27.4577 49.9002C28.2657 47.1927 29.2409 44.5358 30.3775 41.944C29.2386 39.3967 28.272 36.7786 27.4841 34.1069C26.7742 34.2933 26.0901 34.5106 25.4319 34.7591ZM57.7103 41.8887C58.8777 44.4476 59.877 47.0768 60.7023 49.7605C61.0455 49.65 61.3869 49.5396 61.702 49.4293C67.5681 47.3931 71.206 44.282 71.2253 41.8595C71.2253 39.6025 67.8585 36.683 62.3602 34.7021C61.8076 34.5106 61.2039 34.3174 60.6002 34.1241C59.8033 36.7689 58.8381 39.3622 57.7103 41.8887ZM54.5018 35.558C55.1073 36.6589 55.6863 37.7339 56.2108 38.8071C56.9417 37.0529 57.5739 35.2609 58.1045 33.4391C56.3178 33.0134 54.5087 32.6829 52.6855 32.4486C53.3173 33.465 53.921 34.4848 54.5001 35.558H54.5018ZM29.9569 33.4166C30.4849 35.1784 31.1149 36.9678 31.8506 38.8105C32.3786 37.7372 32.9559 36.664 33.5349 35.5907C34.114 34.5175 34.7177 33.4719 35.3495 32.4521C33.4557 32.6954 31.6676 33.025 29.9569 33.4166ZM47.1873 21.7179C46.7402 22.1303 46.2932 22.5703 45.8444 23.0118C47.6711 25.0816 49.3501 27.2725 50.8692 29.5687C53.5463 29.8222 56.2013 30.2639 58.8138 30.8905C58.9194 30.4781 58.9898 30.064 59.0778 29.6516C60.3098 23.3207 59.5513 18.4756 57.5519 17.266C57.1131 17.0245 56.6152 16.9052 56.1122 16.921C53.9633 16.9106 50.665 18.5515 47.1873 21.7126V21.7179ZM30.3511 17.3351C28.4837 18.4635 27.7463 22.9773 28.8516 28.9235C28.9836 29.5568 29.1156 30.1882 29.2722 30.8491C31.8883 30.2454 34.5424 29.8132 37.2169 29.555C38.7414 27.2557 40.4294 25.0647 42.2681 22.9981C41.9794 22.6945 41.6626 22.4201 41.374 22.144C37.7132 18.75 34.1932 16.9588 31.8946 16.9588C31.3545 16.9409 30.8198 17.0711 30.3511 17.3351ZM47.5551 29.3359C46.4702 27.7969 45.2998 26.3176 44.0492 24.9047C42.8665 26.2524 41.682 27.7397 40.5292 29.3359C41.6873 29.2806 42.8436 29.253 44.0281 29.253C45.2125 29.253 46.3988 29.2755 47.5569 29.3359H47.5551ZM38.7692 41.9993C38.7445 41.2917 38.8625 40.5865 39.1164 39.9239C39.3702 39.261 39.755 38.654 40.2486 38.1375C40.7421 37.6207 41.3349 37.2048 41.9928 36.9132C42.6509 36.6216 43.361 36.46 44.0826 36.438C45.5387 36.4866 46.9159 37.0994 47.9118 38.1419C48.9078 39.1843 49.4416 40.5715 49.3961 41.9993C49.4431 43.428 48.9098 44.8168 47.9131 45.8605C46.9166 46.9042 45.5383 47.5176 44.0809 47.5656C43.3587 47.5436 42.6482 47.382 41.9902 47.09C41.3319 46.7981 40.739 46.3815 40.2455 45.8642C39.752 45.3471 39.3676 44.7394 39.1141 44.076C38.8609 43.4129 38.7435 42.7069 38.7692 41.9993Z" fill="#E6E6E6"/>
</g>
<defs>
<clipPath id="clip0_15_450">
<rect width="88" height="88" fill="white"/>
</clipPath>
</defs>
</svg>
